<?xml version="1.0" encoding="utf-8"?>
<!DOCTYPE svg PUBLIC "-//W3C//DTD SVG 1.1//EN" "http://www.w3.org/Graphics/SVG/1.1/DTD/svg11.dtd">
<svg version="1.1"
	 id="svg5992" xmlns:inkscape="http://www.inkscape.org/namespaces/inkscape" xmlns:rdf="http://www.w3.org/1999/02/22-rdf-syntax-ns#" xmlns:sodipodi="http://sodipodi.sourceforge.net/DTD/sodipodi-0.dtd" xmlns:cc="http://creativecommons.org/ns#" xmlns:dc="http://purl.org/dc/elements/1.1/" xmlns:svg="http://www.w3.org/2000/svg" xmlns:ns1="http://sozi.baierouge.fr" sodipodi:docbase="C:\Documents and Settings\user\Bureau\svg a mettre dans ma galerie" inkscape:version="0.46dev+devel" inkscape:export-ydpi="88.267517" inkscape:output_extension="org.inkscape.output.svg.inkscape" inkscape:export-xdpi="88.267517" sodipodi:version="0.32" inkscape:export-filename="c:\joanna\Gfx\drawings_vector\admin\thumbs\yekcim_chests.png" sodipodi:docname="yeKcim_chest_open.svg"
	 xmlns="http://www.w3.org/2000/svg" xmlns:xlink="http://www.w3.org/1999/xlink" x="0px" y="0px" width="1000px" height="1000px"
	 viewBox="0 0 800 800" xml:space="preserve">
<defs>
	<g id="treasure" transform="translate(-110,-1020)">
		
			<path id="path5651" sodipodi:nodetypes="ccccccccccccccccccccccccccccccccccc" fill="#492F17" stroke="#000000" stroke-width="6.374" stroke-linecap="round" stroke-linejoin="round" d="
			M147.923,983.285l-53.089,0.422l-8.282,33.258l0.711,0.088l-25.213,17.996l-0.297-0.041v0.247l-0.06,0.041l0.06,0.016l0.134,14.15
			l-0.149-0.03l0.164,10.551l0.089,0.016c-0.076,1.039-0.025,3.26,0.06,5.399l0.044,4.622l8.475,1.697v-0.057l39.976,8.222
			l0.031,0.483l8.281,2.91l-0.016-0.422l4.802-4.319l12.492-10.417l0.016,0.144l6.333-5.296l-3.302-39.372l0.313-0.262l0.622,0.072
			l0.063-0.335c24.604-4.293,29.243-31.987,7.701-39.552L147.923,983.285L147.923,983.285z M68.475,1032.37l-1.74,1.188h-0.03
			L68.475,1032.37z"/>
		<g id="g10565" transform="matrix(1.099 0 0 1.099 -2248.8 -94.351)">
			<g id="g10567" transform="matrix(-.99259 .14866 .025075 1.0037 4410.1 -275.65)">
				<path id="path10569" sodipodi:nodetypes="ccccc" fill="#492F17" d="M2278.747,951.056l45.772-12.006l-0.009,22.724
					l-25.761,10.684L2278.747,951.056z"/>
				
					<polygon id="rect10571" inkscape:transform-center-y="15.964748" inkscape:transform-center-x="-3.2311253" fill="#85552B" points="
					2276.757,973.418 2297.485,987.165 2297.479,1000.9 2276.751,987.153 				">
				</polygon>
				
					<polygon id="rect10573" inkscape:transform-center-y="14.61411" inkscape:transform-center-x="-3.2360271" fill="#684322" points="
					2277.444,962.436 2297.971,974.88 2297.966,987.341 2277.439,974.897 				">
				</polygon>
				
					<polygon id="rect10575" inkscape:transform-center-y="14.614086" inkscape:transform-center-x="-3.235976" fill="#784D27" points="
					2278.293,950.863 2298.587,963.166 2298.582,975.47 2278.289,963.167 				">
				</polygon>
				<path id="path10577" sodipodi:nodetypes="ccscc" fill="#5E3C1E" d="M2297.744,1000.397l51.573-18.221
					c0,0,0.265-9.545-0.101-9.544c-0.418,0.001-51.886,17.343-51.886,17.343L2297.744,1000.397L2297.744,1000.397z"/>
				<path id="path10579" sodipodi:nodetypes="ccccc" fill="#674221" d="M2297.801,990.071l51.625-16.946l-0.101-9.544
					l-51.573,15.666L2297.801,990.071L2297.801,990.071z"/>
				<path id="path10581" sodipodi:nodetypes="cccc" fill="#1F130A" d="M2324.153,939.441l-0.01,26.462l23.254-14.417
					L2324.153,939.441L2324.153,939.441z"/>
				<path id="path10583" sodipodi:nodetypes="ccccc" fill="#794E27" d="M2297.752,979.936l0.473-8.362l50.161-14.48l-0.684,11.315
					L2297.752,979.936L2297.752,979.936z"/>
				<path id="path10585" sodipodi:nodetypes="ccccc" fill="#6B4523" d="M2298.435,972.067l0.108-8.367l50.161-13.003l-0.317,7.575
					L2298.435,972.067L2298.435,972.067z"/>
			</g>
			<path id="path10587" sodipodi:nodetypes="ccccc" fill="#412407" d="M2172.796,1017.033l-4.963,4.494l2.194,36.343l5.747-4.813
				L2172.796,1017.033z"/>
			<path id="path10589" sodipodi:nodetypes="ccccc" fill="#412407" d="M2157.175,1030.583l-4.964,4.499l2.09,36.06l5.538-4.977
				L2157.175,1030.583z"/>
			<path id="path10591" fill="#512D09" d="M2152.368,1034.855l-7.472-1.27l1.881,35.299l7.524,2.653L2152.368,1034.855z"/>
			<path id="path10593" sodipodi:nodetypes="ccccc" fill="#512D09" d="M2108.635,1028.469l-6.269-0.858l0.313,31.869l7.68,1.537
				L2108.635,1028.469z"/>
			
				<linearGradient id="path10595_1_" gradientUnits="userSpaceOnUse" x1="4205.627" y1="648.8205" x2="4214.958" y2="636.2566" gradientTransform="matrix(-3.2851 0.492 -0.083 -3.3219 16033.6494 1068.9658)">
				<stop  offset="0" style="stop-color:#61360A"/>
				<stop  offset="1" style="stop-color:#050200"/>
			</linearGradient>
			<path id="path10595" fill="url(#path10595_1_)" d="M2173.319,1015.563l-47.128-3.841l7.315-28.686l46.448-0.961
				L2173.319,1015.563z"/>
			<path id="path10597" sodipodi:nodetypes="ccc" fill="#1F130A" d="M2128.02,1012.365l6.27-28.959
				C2146.411,983.261,2155.764,1006.816,2128.02,1012.365z"/>
			<path id="path10599" fill="#523E2C" d="M2125.617,1011.249l47.546,5.682l-20.69,18.002l-50.158-7.06L2125.617,1011.249z
				 M2127.027,1012.817l-20.168,13.482l45.247,6.52l16.458-14.922L2127.027,1012.817z"/>
			
				<linearGradient id="path10601_1_" gradientUnits="userSpaceOnUse" x1="4201.166" y1="644.5881" x2="4207.6831" y2="632.8057" gradientTransform="matrix(-3.2851 0.492 -0.083 -3.3219 16040.2783 1068.0026)">
				<stop  offset="0" style="stop-color:#412407"/>
				<stop  offset="1" style="stop-color:#000000"/>
			</linearGradient>
			<path id="path10601" sodipodi:nodetypes="ccc" fill="url(#path10601_1_)" d="M2173.476,1015.404l6.688-32.801
				C2193.121,982.557,2203.153,1009.382,2173.476,1015.404z"/>
			<path id="path10603" fill="#523E2C" d="M2132.461,980.937l48.277-0.386l-7.106,36.502l-48.695-5.851L2132.461,980.937
				L2132.461,980.937z M2134.499,983.58l-5.799,26.645l43.941,4.746l6.583-32.512L2134.499,983.58z"/>
			<path id="path10605" fill="#523E2C" d="M2180.111,980.562c20.481,6.638,16.145,32.692-7.001,36.291L2180.111,980.562
				L2180.111,980.562z M2180.738,983.878l-5.695,29.356C2193.748,1010.323,2197.301,989.246,2180.738,983.878L2180.738,983.878z"/>
			<path id="path10607" sodipodi:nodetypes="ccccc" fill="#917F6E" d="M2164.071,1014.472c-0.941,0.618-1.306,1.533-1.515,2.515
				l-4.65-0.72c-1.097-0.324,0.209-2.463,1.254-2.304L2164.071,1014.472z"/>
			
				<path id="path10609" sodipodi:start="3.6184187" sodipodi:end="9.8998895" sodipodi:cx="2211.8247" sodipodi:cy="232.68178" sodipodi:open="true" sodipodi:type="arc" sodipodi:ry="3.7201946" sodipodi:rx="3.1114354" fill="#B3A69A" d="
				M2163.879,1015.801c0.468-0.62,0.688-1.412,0.491-1.767c-0.197-0.355-0.735-0.14-1.204,0.48s-0.688,1.412-0.492,1.767
				c0.196,0.355,0.734,0.142,1.202-0.476"/>
			<path id="path10611" sodipodi:nodetypes="ccccc" fill="#917F6E" d="M2139.828,1011.568c-0.941,0.617-1.306,1.532-1.568,2.509
				l-4.65-0.72c-1.045-0.319,0.209-2.463,1.306-2.299L2139.828,1011.568z"/>
			
				<path id="path10613" sodipodi:start="3.6184187" sodipodi:end="9.8998895" sodipodi:cx="2211.8247" sodipodi:cy="232.68178" sodipodi:open="true" sodipodi:type="arc" sodipodi:ry="3.7201946" sodipodi:rx="3.1114354" fill="#B3A69A" d="
				M2139.636,1012.87c0.468-0.621,0.688-1.412,0.491-1.767c-0.196-0.356-0.735-0.141-1.203,0.48
				c-0.469,0.62-0.688,1.412-0.491,1.767c0.196,0.355,0.733,0.141,1.201-0.477"/>
			
				<radialGradient id="path10615_1_" cx="4312.0957" cy="-449.6727" r="82.6451" gradientTransform="matrix(0.1146 0.0189 0 -0.1064 1629.4277 911.4677)" gradientUnits="userSpaceOnUse">
				<stop  offset="0" style="stop-color:#DADADA"/>
				<stop  offset="1" style="stop-color:#888888"/>
			</radialGradient>
			<path id="path10615" sodipodi:nodetypes="csss" fill="url(#path10615_1_)" d="M2118.981,1036.486
				c4.441-1.358,10.606-0.833,14.838,2.504c2.351,1.815,1.724,14.33-7.105,12.937
				C2118.876,1050.682,2116.002,1037.385,2118.981,1036.486L2118.981,1036.486z"/>
			<path id="path10617" d="M2125.878,1039.442c-0.627-0.092-1.254,0.159-1.568,0.714h-0.052c-0.418,0.797-0.104,1.923,0.784,2.535
				l-1.724,3.867l5.225,0.864l-1.567-4.53c0.261-0.124,0.418-0.304,0.575-0.546c0.47-0.807,0.104-1.954-0.784-2.56
				C2126.452,1039.597,2126.191,1039.483,2125.878,1039.442L2125.878,1039.442z"/>
		</g>
	</g>
</defs>
<use href="#treasure" transform="" fill="pink" />
</svg>
